<?xml version="1.0" standalone="no"?><!DOCTYPE svg PUBLIC "-//W3C//DTD SVG 1.1//EN" "http://www.w3.org/Graphics/SVG/1.1/DTD/svg11.dtd"><svg t="1707206907617" class="icon" viewBox="0 0 1024 1024" version="1.1" xmlns="http://www.w3.org/2000/svg" p-id="2897" xmlns:xlink="http://www.w3.org/1999/xlink" width="200" height="200"><path d="M437.6064 179.968L184.9344 408.1664v430.336c0 25.2928 21.8624 45.824 48.8448 45.824h148.4288c31.6928 0 57.3952-25.7024 57.3952-57.3952v-176.5376h137.472v176.5376c0 31.6928 25.7024 57.3952 57.3952 57.3952h148.4288c26.9824 0 48.8448-20.5312 48.8448-45.824V406.9376l-252.5696-227.1232c-40.192-36.2496-101.3248-36.1472-141.568 0.1536z" fill="#F4F9FF" p-id="2898"></path><path d="M613.2224 210.3808c-75.6736 159.3344-248.1664 255.6416-428.288 229.888v398.2336c0 25.2928 21.8624 45.824 48.8448 45.824h148.4288c31.6928 0 57.3952-25.7024 57.3952-57.3952v-176.5376h137.472v176.5376c0 31.6928 25.7024 57.3952 57.3952 57.3952h148.4288c26.9824 0 48.8448-20.5312 48.8448-45.824V406.9376l-218.5216-196.5568z" fill="#E9F4FF" p-id="2899"></path><path d="M745.9328 329.728c-61.44 199.3216-265.3696 323.328-474.0096 280.7808a413.62944 413.62944 0 0 1-86.9888-28.16v256.2048c0 25.2928 21.8624 45.824 48.8448 45.824H783.0016c26.9824 0 48.8448-20.5312 48.8448-45.824v-431.616L745.9328 329.728z" fill="#E0F0FF" p-id="2900"></path><path d="M577.0752 772.5568c-51.0464 15.4624-137.472 14.9504-137.472 14.9504-18.944-1.1776-37.9904-3.584-57.1392-7.4752-76.8-15.6672-144.1792-51.8656-197.5808-101.632v160.1024c0 25.2928 21.8624 45.824 48.8448 45.824H782.9504c26.9824 0 48.8448-20.5312 48.8448-45.824v-277.4016c-51.7632 104.0384-140.544 175.9232-254.72 211.456z" fill="#D7ECFF" p-id="2901"></path><path d="M932.5056 440.4224l-107.5712-96.6144V192.3584c0-15.5648-12.5952-28.16-28.16-28.16s-28.16 12.5952-28.16 28.16v100.8128l-171.5712-154.112a133.4272 133.4272 0 0 0-179.6608 0.6656L87.808 440.0128a28.11904 28.11904 0 0 0-1.8432 39.7824c10.4448 11.4688 28.3136 12.3392 39.7824 1.8432l329.5232-300.288c29.5936-26.9824 74.3424-27.136 104.1408-0.3584l335.5136 301.312a28.11904 28.11904 0 0 0 39.7312-2.0992c10.3936-11.6224 9.4208-29.44-2.1504-39.7824z" fill="#333333" p-id="2902"></path><path d="M563.3536 249.7024a81.98144 81.98144 0 0 0-109.9776 0.1024L186.0096 491.3152a88.79104 88.79104 0 0 0-29.2352 65.792v195.2768c0 88.2688 71.8336 160.1024 160.1024 160.1024h382.976c88.2688 0 160.1024-71.8336 160.1024-160.1024v-196.4544c0-25.1392-10.7008-49.152-29.3888-65.9456l-267.2128-240.2816z m240.2816 502.6816c0 57.2416-46.5408 103.7824-103.7824 103.7824h-382.976c-57.2416 0-103.7824-46.5408-103.7824-103.7824v-195.2768c0-9.1648 3.8912-17.92 10.6496-24.0128l267.3664-241.5104c4.9152-4.4544 11.1104-6.656 17.3056-6.656 6.144 0 12.3392 2.2016 17.2544 6.656l267.2128 240.2816a32.43008 32.43008 0 0 1 10.7008 24.064v196.4544z" fill="#333333" p-id="2903"></path><path d="M638.464 529.5104c-35.7376-35.7376-91.2896-39.8336-131.584-12.3392-40.2944-27.4944-95.8464-23.3984-131.584 12.3392-40.3456 40.3968-40.3456 106.0864 0 146.432l96.9728 96.9728c9.216 9.216 21.504 14.336 34.56 14.336s25.344-5.0688 34.56-14.336l96.9728-96.9728c40.448-40.3968 40.448-106.0864 0.1024-146.432z m-39.8336 106.5984L506.88 727.8592l-91.7504-91.7504c-18.432-18.432-18.432-48.384 0-66.816 9.216-9.216 21.2992-13.824 33.3824-13.824s24.1664 4.608 33.3824 13.824l5.0176 5.0176a28.14976 28.14976 0 0 0 39.8336 0l5.0688-5.0688c18.432-18.432 48.384-18.432 66.816 0 18.432 18.4832 18.432 48.4352 0 66.8672z" fill="#333333" p-id="2904"></path></svg>